<?xml version="1.0" encoding="UTF-8" standalone="no"?>
<svg
   xmlns:dc="http://purl.org/dc/elements/1.1/"
   xmlns:cc="http://creativecommons.org/ns#"
   xmlns:rdf="http://www.w3.org/1999/02/22-rdf-syntax-ns#"
   xmlns:svg="http://www.w3.org/2000/svg"
   xmlns="http://www.w3.org/2000/svg"
   xmlns:sodipodi="http://sodipodi.sourceforge.net/DTD/sodipodi-0.dtd"
   xmlns:inkscape="http://www.inkscape.org/namespaces/inkscape"
   width="180"
   height="180"
   id="svg3029"
   version="1.1"
   inkscape:version="0.48.4 r9939"
   sodipodi:docname="element3.svg">
  <metadata
     id="metadata3041">
    <rdf:RDF>
      <cc:Work
         rdf:about="">
        <dc:format>image/svg+xml</dc:format>
        <dc:type
           rdf:resource="http://purl.org/dc/dcmitype/StillImage" />
        <dc:title></dc:title>
      </cc:Work>
    </rdf:RDF>
  </metadata>
  <defs
     id="defs3039" />
  <sodipodi:namedview
     pagecolor="#ffffff"
     bordercolor="#666666"
     borderopacity="1"
     objecttolerance="10"
     gridtolerance="10"
     guidetolerance="10"
     inkscape:pageopacity="0"
     inkscape:pageshadow="2"
     inkscape:window-width="923"
     inkscape:window-height="672"
     id="namedview3037"
     showgrid="false"
     inkscape:zoom="1.3111111"
     inkscape:cx="90"
     inkscape:cy="90"
     inkscape:window-x="584"
     inkscape:window-y="264"
     inkscape:window-maximized="0"
     inkscape:current-layer="svg3029" />
  <g
     id="g4002">
    <rect
       id="rect3031"
       x="15"
       y="15"
       rx="20"
       ry="20"
       width="150"
       height="150"
       style="opacity:0.50000000000000000;fill:#00ffff;stroke:#000000;stroke-width:5;fill-opacity:1" />
    <g
       transform="translate(31.610351,30.927633)"
       id="g3966">
      <path
         id="path3968"
         d="m 13.86,39.26 62.271,71.701 35,-35 L 39.51,13.61 13.86,39.26 l 0,0 0,0 z M 14.62,29.79 0,11.52 11.52,0 29.95,14.46 14.62,29.79 l 0,0 0,0 z m 71.731,92.931 36.53,-36.529 -6.18,-5.381 -35.73,35.721 5.38,6.189 0,0 z"
         clip-rule="evenodd"
         inkscape:connector-curvature="0"
         style="fill-rule:evenodd" />
      <path
         id="path3970"
         d="m 45.195,43.365 5.982,5.982 -7.477,7.477 c -2.181,-1.068 -4.243,-2.574 -6.192,-4.523 -2.136,-2.136 -3.169,-4.405 -3.094,-6.809 0.074,-2.405 1.258,-4.756 3.554,-7.051 2.24,-2.24 4.619,-3.343 7.141,-3.314 2.524,0.032 4.934,1.198 7.235,3.499 0.87,0.871 1.615,1.776 2.223,2.716 0.609,0.938 1.075,1.818 1.399,2.647 l -4.124,1.754 c -0.503,-1.492 -1.354,-2.834 -2.548,-4.03 -1.094,-1.094 -2.295,-1.583 -3.603,-1.466 -1.308,0.11 -2.622,0.828 -3.946,2.152 -1.294,1.294 -2.013,2.551 -2.152,3.771 -0.14,1.222 0.301,2.341 1.317,3.357 0.558,0.558 1.123,1.014 1.697,1.373 l 2.168,-2.169 -2.473,-2.474 2.893,-2.892 0,0 z m 3.679,19.914 -3.71,-3.71 14.76,-14.76 3.711,3.71 -14.761,14.76 0,0 z m 9.718,9.717 0.87,-1.797 -0.219,-0.219 C 58.44,71.168 57.631,71.109 56.815,70.818 56,70.525 55.22,70.011 54.472,69.263 53.29,68.081 52.714,66.82 52.74,65.472 c 0.03,-1.342 0.67,-2.637 1.922,-3.89 l 6.998,-6.998 3.707,3.707 -5.869,5.869 c -0.702,0.701 -1.133,1.332 -1.292,1.893 -0.161,0.557 -0.016,1.064 0.441,1.521 0.638,0.639 1.346,0.842 2.119,0.611 0.774,-0.229 1.758,-0.941 2.953,-2.137 l 4.702,-4.702 3.707,3.706 -10.74,10.74 -2.796,-2.796 0,0 z m 9.847,10.236 c -1.79,-1.791 -2.703,-3.654 -2.742,-5.596 -0.036,-1.941 0.825,-3.791 2.583,-5.549 1.815,-1.816 3.664,-2.752 5.555,-2.803 1.887,-0.055 3.681,0.766 5.38,2.465 1.618,1.619 2.447,3.289 2.485,5.018 0.035,1.727 -0.741,3.383 -2.327,4.969 l -1.651,1.65 -6.625,-6.625 c -0.574,0.625 -0.825,1.316 -0.751,2.07 0.07,0.752 0.466,1.49 1.178,2.201 0.65,0.652 1.311,1.189 1.98,1.613 0.671,0.424 1.473,0.807 2.408,1.146 l -2.67,2.67 c -0.873,-0.285 -1.684,-0.682 -2.415,-1.186 -0.731,-0.504 -1.53,-1.185 -2.388,-2.043 l 0,0 z m 8.383,-8.824 c -0.434,-0.434 -0.939,-0.66 -1.509,-0.68 -0.568,-0.02 -1.172,0.238 -1.81,0.779 l 3.183,3.184 c 0.505,-0.531 0.773,-1.092 0.803,-1.684 0.03,-0.592 -0.191,-1.122 -0.667,-1.599 l 0,0 z"
         inkscape:connector-curvature="0"
         style="fill:#ffffff" />
    </g>
  </g>
</svg>
